PathFileType	4	(X/Y/Z)	distal_points_all_segments.trc
DataRate	CameraRate	NumFrames	NumMarkers	Units	OrigDataRate	OrigDataStartFrame	OrigNumFrames
60.0	60.0	26	18	m	60.0	109	290
Frame#	Time	worldbody			l_thigh			l_shank			l_foot			l_toes			r_thigh			r_shank			r_foot			r_toes			head			torso			l_uarm			l_larm			l_hand			r_uarm			r_larm			r_hand			pelvis_shifted		
		X1	Y1	Z1	X2	Y2	Z2	X3	Y3	Z3	X4	Y4	Z4	X5	Y5	Z5	X6	Y6	Z6	X7	Y7	Z7	X8	Y8	Z8	X9	Y9	Z9	X10	Y10	Z10	X11	Y11	Z11	X12	Y12	Z12	X13	Y13	Z13	X14	Y14	Z14	X15	Y15	Z15	X16	Y16	Z16	X17	Y17	Z17	X18	Y18	Z18
109	1.80000	0.000	0.000	0.000	0.254	0.703	0.474	0.242	0.673	0.087	0.242	0.680	-0.075	0.200	0.817	0.027	0.489	0.734	0.473	0.508	0.701	0.089	0.499	0.692	-0.071	0.518	0.847	0.022	0.355	0.760	1.565	0.359	0.760	1.362	0.020	0.596	1.218	0.146	0.691	1.037	0.289	0.820	0.894	0.742	0.706	1.236	0.590	0.765	1.058	0.434	0.834	0.889	0.376	0.699	0.939
110	1.81667	0.000	0.000	0.000	0.254	0.704	0.473	0.243	0.673	0.087	0.242	0.680	-0.075	0.201	0.817	0.026	0.489	0.736	0.472	0.508	0.700	0.089	0.501	0.692	-0.072	0.517	0.847	0.022	0.354	0.763	1.565	0.358	0.762	1.362	0.019	0.601	1.216	0.146	0.694	1.035	0.292	0.822	0.894	0.740	0.709	1.233	0.589	0.766	1.054	0.428	0.839	0.892	0.376	0.699	0.938
111	1.83333	0.000	0.000	0.000	0.253	0.705	0.473	0.243	0.673	0.086	0.242	0.679	-0.076	0.201	0.817	0.025	0.490	0.737	0.471	0.508	0.700	0.088	0.501	0.691	-0.073	0.518	0.846	0.021	0.352	0.767	1.564	0.357	0.764	1.362	0.017	0.607	1.214	0.147	0.696	1.033	0.296	0.823	0.894	0.739	0.712	1.230	0.588	0.766	1.051	0.423	0.840	0.892	0.376	0.698	0.938
112	1.85000	0.000	0.000	0.000	0.252	0.706	0.472	0.242	0.672	0.085	0.243	0.679	-0.077	0.201	0.817	0.025	0.492	0.739	0.470	0.509	0.699	0.088	0.502	0.690	-0.073	0.519	0.845	0.020	0.352	0.771	1.564	0.357	0.766	1.361	0.016	0.612	1.212	0.148	0.698	1.030	0.301	0.821	0.893	0.738	0.716	1.229	0.587	0.767	1.048	0.419	0.842	0.892	0.377	0.698	0.937
113	1.86667	0.000	0.000	0.000	0.251	0.708	0.471	0.241	0.671	0.085	0.244	0.680	-0.077	0.201	0.817	0.025	0.493	0.741	0.470	0.510	0.699	0.088	0.502	0.689	-0.073	0.519	0.845	0.019	0.351	0.775	1.562	0.356	0.770	1.360	0.016	0.618	1.209	0.148	0.699	1.026	0.305	0.818	0.889	0.737	0.721	1.227	0.587	0.766	1.045	0.415	0.844	0.895	0.376	0.697	0.936
114	1.88333	0.000	0.000	0.000	0.249	0.712	0.471	0.241	0.671	0.085	0.244	0.679	-0.077	0.201	0.817	0.025	0.493	0.744	0.471	0.510	0.699	0.089	0.500	0.689	-0.072	0.519	0.844	0.020	0.350	0.780	1.560	0.355	0.773	1.359	0.015	0.623	1.206	0.149	0.700	1.023	0.308	0.816	0.885	0.737	0.726	1.227	0.587	0.765	1.042	0.412	0.844	0.897	0.377	0.696	0.936
115	1.90000	0.000	0.000	0.000	0.248	0.716	0.471	0.241	0.672	0.086	0.244	0.679	-0.076	0.202	0.817	0.025	0.493	0.746	0.471	0.509	0.699	0.090	0.499	0.689	-0.071	0.518	0.844	0.021	0.348	0.786	1.558	0.355	0.777	1.357	0.013	0.629	1.204	0.149	0.700	1.020	0.311	0.813	0.884	0.736	0.730	1.226	0.587	0.764	1.040	0.409	0.840	0.896	0.377	0.693	0.936
116	1.91667	0.000	0.000	0.000	0.246	0.720	0.471	0.242	0.672	0.086	0.244	0.680	-0.076	0.202	0.818	0.025	0.494	0.749	0.471	0.510	0.698	0.090	0.499	0.689	-0.071	0.518	0.844	0.022	0.346	0.791	1.556	0.354	0.780	1.356	0.010	0.636	1.203	0.149	0.699	1.017	0.315	0.809	0.884	0.736	0.734	1.223	0.587	0.764	1.037	0.407	0.832	0.892	0.378	0.691	0.936
117	1.93333	0.000	0.000	0.000	0.243	0.724	0.470	0.242	0.673	0.086	0.244	0.682	-0.076	0.202	0.819	0.026	0.495	0.752	0.470	0.510	0.698	0.089	0.499	0.689	-0.071	0.519	0.844	0.021	0.345	0.797	1.554	0.354	0.783	1.354	0.008	0.643	1.201	0.148	0.698	1.014	0.318	0.804	0.882	0.735	0.739	1.220	0.586	0.764	1.032	0.404	0.825	0.888	0.378	0.689	0.935
118	1.95000	0.000	0.000	0.000	0.240	0.729	0.470	0.241	0.674	0.086	0.244	0.683	-0.076	0.202	0.820	0.026	0.496	0.757	0.469	0.510	0.698	0.089	0.500	0.689	-0.072	0.520	0.843	0.021	0.344	0.803	1.551	0.353	0.787	1.351	0.007	0.648	1.199	0.147	0.698	1.011	0.320	0.799	0.878	0.734	0.745	1.217	0.586	0.764	1.028	0.401	0.819	0.885	0.377	0.688	0.933
119	1.96667	0.000	0.000	0.000	0.238	0.735	0.469	0.240	0.674	0.086	0.244	0.683	-0.076	0.201	0.820	0.026	0.498	0.763	0.469	0.510	0.698	0.089	0.500	0.688	-0.071	0.521	0.843	0.021	0.343	0.810	1.547	0.352	0.792	1.349	0.007	0.651	1.196	0.147	0.698	1.007	0.321	0.796	0.873	0.734	0.751	1.214	0.586	0.763	1.024	0.400	0.816	0.881	0.377	0.688	0.932
120	1.98333	0.000	0.000	0.000	0.236	0.742	0.469	0.240	0.674	0.088	0.245	0.681	-0.075	0.201	0.819	0.026	0.499	0.770	0.469	0.510	0.698	0.090	0.500	0.688	-0.070	0.521	0.843	0.021	0.341	0.817	1.542	0.352	0.797	1.346	0.007	0.655	1.193	0.147	0.697	1.002	0.322	0.794	0.869	0.734	0.756	1.211	0.586	0.762	1.021	0.400	0.813	0.877	0.377	0.687	0.931
121	2.00000	0.000	0.000	0.000	0.234	0.749	0.469	0.241	0.674	0.089	0.246	0.680	-0.074	0.202	0.818	0.025	0.500	0.777	0.468	0.510	0.699	0.091	0.499	0.688	-0.069	0.520	0.844	0.021	0.340	0.825	1.537	0.351	0.802	1.344	0.008	0.659	1.189	0.149	0.694	0.998	0.324	0.792	0.865	0.733	0.761	1.208	0.586	0.763	1.018	0.398	0.809	0.875	0.378	0.686	0.929
122	2.01667	0.000	0.000	0.000	0.231	0.757	0.468	0.240	0.674	0.089	0.245	0.679	-0.073	0.202	0.818	0.025	0.502	0.785	0.467	0.510	0.700	0.092	0.499	0.689	-0.069	0.519	0.845	0.021	0.339	0.833	1.532	0.350	0.807	1.340	0.008	0.663	1.185	0.150	0.693	0.993	0.327	0.787	0.861	0.732	0.766	1.205	0.585	0.764	1.014	0.395	0.808	0.873	0.378	0.685	0.927
123	2.03333	0.000	0.000	0.000	0.227	0.765	0.467	0.239	0.675	0.090	0.244	0.678	-0.073	0.202	0.819	0.025	0.505	0.794	0.466	0.511	0.702	0.092	0.498	0.690	-0.068	0.519	0.847	0.021	0.338	0.841	1.525	0.349	0.812	1.335	0.007	0.668	1.180	0.149	0.693	0.988	0.330	0.779	0.856	0.731	0.770	1.200	0.584	0.763	1.009	0.393	0.808	0.870	0.378	0.683	0.923
124	2.05000	0.000	0.000	0.000	0.223	0.773	0.465	0.239	0.675	0.090	0.244	0.679	-0.072	0.201	0.819	0.025	0.507	0.802	0.464	0.511	0.703	0.092	0.498	0.691	-0.068	0.520	0.848	0.021	0.338	0.848	1.516	0.348	0.818	1.328	0.005	0.673	1.174	0.149	0.692	0.983	0.333	0.772	0.850	0.731	0.774	1.194	0.584	0.762	1.004	0.393	0.805	0.864	0.379	0.680	0.918
125	2.06667	0.000	0.000	0.000	0.219	0.781	0.464	0.239	0.676	0.091	0.244	0.679	-0.071	0.200	0.820	0.025	0.511	0.811	0.462	0.512	0.703	0.092	0.498	0.691	-0.068	0.521	0.848	0.021	0.337	0.855	1.506	0.347	0.823	1.320	0.004	0.678	1.167	0.150	0.690	0.977	0.333	0.769	0.843	0.732	0.779	1.187	0.584	0.760	0.998	0.395	0.801	0.855	0.380	0.678	0.913
126	2.08333	0.000	0.000	0.000	0.216	0.789	0.461	0.239	0.677	0.091	0.244	0.679	-0.071	0.200	0.820	0.024	0.513	0.820	0.460	0.512	0.704	0.093	0.498	0.692	-0.068	0.521	0.848	0.022	0.336	0.863	1.494	0.346	0.829	1.310	0.003	0.683	1.158	0.150	0.688	0.969	0.333	0.770	0.837	0.732	0.783	1.179	0.586	0.758	0.990	0.397	0.801	0.846	0.380	0.675	0.907
127	2.10000	0.000	0.000	0.000	0.213	0.796	0.459	0.239	0.677	0.091	0.245	0.679	-0.072	0.200	0.820	0.024	0.515	0.828	0.458	0.512	0.704	0.093	0.498	0.692	-0.067	0.520	0.849	0.022	0.335	0.871	1.481	0.344	0.835	1.300	0.001	0.689	1.148	0.150	0.687	0.960	0.334	0.774	0.832	0.731	0.788	1.170	0.586	0.756	0.981	0.398	0.803	0.837	0.379	0.672	0.901
128	2.11667	0.000	0.000	0.000	0.211	0.805	0.456	0.238	0.677	0.090	0.245	0.680	-0.072	0.200	0.820	0.024	0.516	0.837	0.455	0.513	0.704	0.094	0.497	0.692	-0.066	0.519	0.849	0.022	0.333	0.879	1.467	0.343	0.841	1.289	-0.000	0.694	1.137	0.149	0.688	0.949	0.335	0.778	0.827	0.729	0.792	1.158	0.585	0.753	0.969	0.396	0.806	0.829	0.378	0.668	0.894
129	2.13333	0.000	0.000	0.000	0.209	0.814	0.452	0.238	0.677	0.091	0.245	0.679	-0.071	0.200	0.820	0.024	0.517	0.846	0.452	0.514	0.705	0.093	0.496	0.692	-0.066	0.518	0.849	0.021	0.333	0.887	1.452	0.343	0.847	1.276	-0.002	0.699	1.125	0.148	0.689	0.937	0.336	0.783	0.822	0.728	0.796	1.145	0.584	0.751	0.957	0.392	0.806	0.821	0.377	0.665	0.885
130	2.15000	0.000	0.000	0.000	0.205	0.824	0.449	0.238	0.678	0.092	0.245	0.677	-0.071	0.200	0.820	0.023	0.518	0.855	0.448	0.514	0.706	0.093	0.494	0.692	-0.067	0.518	0.849	0.020	0.332	0.895	1.435	0.343	0.853	1.263	-0.003	0.705	1.111	0.148	0.689	0.925	0.338	0.783	0.813	0.726	0.800	1.131	0.583	0.751	0.943	0.388	0.805	0.813	0.377	0.662	0.875
131	2.16667	0.000	0.000	0.000	0.201	0.834	0.446	0.238	0.679	0.093	0.245	0.675	-0.069	0.200	0.819	0.021	0.520	0.866	0.443	0.514	0.706	0.093	0.494	0.692	-0.067	0.519	0.850	0.019	0.332	0.904	1.417	0.342	0.858	1.248	-0.004	0.710	1.096	0.148	0.689	0.911	0.341	0.778	0.800	0.725	0.805	1.116	0.582	0.751	0.930	0.385	0.802	0.801	0.378	0.658	0.865
132	2.18333	0.000	0.000	0.000	0.196	0.844	0.442	0.237	0.680	0.093	0.245	0.675	-0.069	0.200	0.820	0.020	0.520	0.876	0.440	0.513	0.707	0.094	0.496	0.690	-0.066	0.519	0.850	0.018	0.330	0.912	1.396	0.341	0.865	1.233	-0.005	0.715	1.079	0.149	0.688	0.897	0.345	0.768	0.784	0.724	0.810	1.100	0.582	0.750	0.915	0.382	0.796	0.788	0.378	0.655	0.853
133	2.20000	0.000	0.000	0.000	0.190	0.852	0.438	0.237	0.680	0.093	0.245	0.675	-0.069	0.199	0.820	0.020	0.521	0.886	0.436	0.512	0.708	0.094	0.498	0.689	-0.065	0.518	0.849	0.018	0.330	0.920	1.375	0.339	0.871	1.216	-0.007	0.719	1.061	0.150	0.687	0.882	0.349	0.758	0.769	0.724	0.814	1.082	0.581	0.749	0.900	0.381	0.790	0.773	0.377	0.652	0.841
134	2.21667	0.000	0.000	0.000	0.186	0.860	0.433	0.237	0.680	0.092	0.245	0.676	-0.070	0.199	0.820	0.019	0.522	0.896	0.431	0.511	0.708	0.095	0.499	0.689	-0.065	0.518	0.850	0.018	0.329	0.927	1.353	0.338	0.878	1.197	-0.008	0.724	1.043	0.150	0.686	0.867	0.353	0.749	0.754	0.724	0.818	1.064	0.582	0.747	0.883	0.381	0.784	0.756	0.377	0.649	0.828
